<?xml version="1.0" standalone="no"?>
<!DOCTYPE svg PUBLIC "-//W3C//DTD SVG 1.1//EN" "http://www.w3.org/Graphics/SVG/1.1/DTD/svg11.dtd" >
<svg xmlns="http://www.w3.org/2000/svg" xmlns:xlink="http://www.w3.org/1999/xlink" version="1.1">
<metadata></metadata>
<defs>
<font id="emilio_20regular" horiz-adv-x="1603" >
<font-face units-per-em="2048" ascent="1638" descent="-410" />
<missing-glyph horiz-adv-x="921" />
<glyph horiz-adv-x="0" />
<glyph horiz-adv-x="682" />
<glyph unicode=" "  horiz-adv-x="921" />
<glyph unicode="&#x09;" horiz-adv-x="921" />
<glyph unicode="&#xa0;" horiz-adv-x="921" />
<glyph unicode="$" horiz-adv-x="1585" d="M139 326v448h396v19h-207l-189 264v665l189 265h207v182h434v-182h209l188 -265v-450h-397v-15h209l188 -262v-667l-188 -262h-209v-181l-434 -2v178h-207zM213 354l149 -211h246v-180l287 2v180h248l149 213v609l-149 211h-248v430h113v-254h284v340l-149 211h-248v182 h-287v-182h-246l-149 -211v-609l149 -211h246v-432h-110v252h-285v-340zM262 373v266h187v-250h208v539h-270l-125 176v571l125 176h270v183h189v-183h272l125 -176v-266h-186v254h-211v-541h272l125 -174v-573l-125 -174h-272v-181l-189 -2v179h-270zM453 1120h204v539 h-204v-539zM502 1174v432h106v-432h-106zM846 389h196v539h-196v-539zM895 442v432h98v-432h-98z" />
<glyph unicode="." horiz-adv-x="888" d="M225 72v442h443v-442h-443zM297 143h301v301h-301v-301zM342 188v207h207v-207h-207z" />
<glyph unicode="0" d="M139 319v1375l185 245h854l188 -258v-1362l-188 -256h-854zM213 346l145 -203h785l149 205v1307l-149 205h-783l-147 -197v-1317zM262 365v1280l121 161h735l125 -170v-1269l-125 -172h-735zM446 381h596v1239h-589zM496 434q0 147 1 288.5t2 281t2 279.5t1 286h491 v-1135h-497zM571 514h349v975h-347q-2 -236 -1 -476.5t-1 -498.5z" />
<glyph unicode="1" horiz-adv-x="1019" d="M203 63v451h96v975h-96v450h444v-1425h96v-451h-540zM262 143h424v291h-98v1426h-326v-291h96v-1135h-96v-291zM301 195v186h96v1239h-96v186h248v-366v-346v-713h96v-186h-344z" />
<glyph unicode="2" horiz-adv-x="1640" d="M139 63v906l189 258h602v262h-359v-244h-432v436l189 258h850l188 -258v-649l-188 -256h-598v-262h354v244h432v-695h-1227zM213 143h1079v537h-284v-246h-502v422h637l149 205v594l-149 205h-781l-149 -205v-332h285v246h506v-422h-642l-149 -205v-799zM262 195v729 l125 170h666v526h-604v-244h-187v260l125 170h731l125 -170v-557l-125 -172h-661v-526h301h299v246h186v-432h-125h-61h-795z" />
<glyph unicode="3" horiz-adv-x="1626" d="M139 319v439h436v-244h345v262h-465v451h465v262h-345v-244h-436v436l189 258h850l188 -258v-647l-25 -33q8 -10 14.5 -19t10.5 -13v-650l-188 -256h-850zM213 348l149 -205h781l149 205v590q-10 12 -22.5 29.5t-22.5 33.5l45 64v590l-149 205h-781l-149 -205v-332h289 v246h491v-422h-465v-291h465v-422h-491v246h-289v-332zM262 367v14v246h191v-246h589v526h-464v187h464v526h-589v-244h-191v244v16l125 170h731l125 -170v-555l-59 -80l59 -81v-553l-125 -172h-665h-66z" />
<glyph unicode="4" horiz-adv-x="1726" d="M115 514v334l774 1091h479v-976h125v-900h-694v451h-684zM188 594h809v-160h-123v-291h543v291h-125v160h125v289h-125v977h-364l-740 -1039v-227zM240 645v160l712 1001h291v-366v-346v-263h123v-186h-123v-264h123v-186h-442v186h125v264h-465h-244h-100zM485 831h564 v435v350zM588 883q57 82 109.5 153.5t101.5 141t97 138t101 142.5v-575h-409zM739 963h185v256q-39 -53 -81 -111.5t-104 -144.5z" />
<glyph unicode="5" horiz-adv-x="1654" d="M139 319v439h432v-244h359v262h-602l-189 256v907h1227v-694h-432v244h-354v-262h598l188 -258v-650l-188 -256h-850zM213 348l149 -205h781l149 205v594l-149 205h-637v422h502v-246h284v537h-1079v-799l149 -205h642v-422h-506v246h-285v-332zM262 367v260h187v-246 h604v526h-666l-125 172v727h795h61h125v-430h-186v244h-299h-301v-526h661l125 -170v-557l-125 -172h-731z" />
<glyph unicode="6" d="M139 319v1362l189 258h850l188 -258v-436h-436v244h-344v-262h592l188 -258v-650l-188 -256h-850zM213 348l149 -205h781l149 205v594l-149 205h-631v422h492v-246h288v332l-149 205h-781l-149 -203v-1309zM262 367v1269l125 170h731l125 -170v-260h-190v244h-590v-526 h655l125 -170v-557l-125 -172h-65h-666zM463 381h590v526h-590v-526zM512 434v422h492v-422h-492zM586 514h344v262h-344v-262z" />
<glyph unicode="7" horiz-adv-x="1497" d="M139 1245v694h1227v-395l-446 -1030h41v-451h-680v451h159q57 135 106.5 249t97.5 223.5t98.5 225t111.5 258.5h-279v-225h-436zM213 1323h289v227h467q-63 -147 -123 -285.5t-118 -273.5t-117.5 -272t-123.5 -285h-133v-291h533v291h-82l487 1125v301h-1079v-537z M262 1376v430h981v-235l-514 -1190h109v-186h-189h-211h-35v186h117l527 1223h-594v-228h-191z" />
<glyph unicode="8" horiz-adv-x="1640" d="M139 319v650l25 32q-8 10 -14.5 18.5t-10.5 14.5v647l189 258h850l188 -258v-647l-25 -33q8 -10 14.5 -19t10.5 -13v-650l-188 -256h-850zM213 348l149 -205h781l149 205v590q-10 12 -22.5 29.5t-22.5 33.5l45 64v590l-149 205h-781l-149 -205v-590q10 -12 22.5 -29.5 t22.5 -34.5l-45 -63v-590zM262 367v553l60 81l-60 80v295v260l125 170h731l125 -170v-555l-59 -80l59 -81v-553l-125 -172h-731zM463 381h579v526h-579v-526zM463 1094h579v526h-579v-526zM512 434v422h481v-422h-481zM512 1147v422h481v-422h-481zM586 514h334v262h-334 v-262zM586 1227h334v262h-334v-262z" />
<glyph unicode="9" horiz-adv-x="1632" d="M139 319v439h436v-244h345v262h-592l-189 256v649l189 258h850l188 -258v-1362l-188 -256h-850zM213 348l149 -205h781l149 203v1309l-149 205h-781l-149 -205v-594l149 -205h631v-422h-491v246h-289v-332zM262 367v260h191v-246h589v526h-655l-125 172v557l125 170h66 h665l125 -170v-1269l-125 -172h-731zM453 1094h589v526h-589v-526zM502 1147v422h491v-422h-491zM575 1227h345v262h-345v-262z" />
<glyph unicode="A" horiz-adv-x="1847" d="M94 63v451h162q41 133 77 249t71.5 229.5t72.5 233.5t80 263h-61v450h825v-450h-61q39 -125 75.5 -244t72.5 -236.5t73 -240.5t78 -254h161v-451h-712v435h-199v-435h-715zM172 143h559v291h-100l47 144h461q12 -41 23.5 -75t21.5 -69h-99v-291h560v291h-142 q-90 293 -175 568.5t-173 566.5h88v291h-672v-291h91q-47 -150 -90.5 -290t-86.5 -278.5t-86 -277.5t-88 -289h-139v-291zM225 195v186h127l381 1239h-108v186h565v-186h-109l383 -1239h127v-186h-454v186h118l-75 250h-543l-76 -250h119v-186h-455zM694 817h426l-213 690 q-53 -174 -106 -345t-107 -345zM766 868q12 43 22.5 76t19.5 63.5t20.5 63.5t23.5 74q16 47 28.5 92t26.5 92l142 -461h-283zM870 948h72l-35 119q-6 -16 -8 -24.5t-5 -17.5t-8 -26.5t-16 -50.5z" />
<glyph unicode="B" horiz-adv-x="1689" d="M141 63v451h109v975h-109v450h1170l190 -258v-647l-24 -33q8 -10 14 -19t10 -13v-650l-190 -256h-1170zM217 143h1057l153 205v590q-10 12 -23 29.5t-24 33.5l47 64v590l-153 205h-1057v-291h109v-1135h-109v-291zM268 195v186h109v1239h-109v186h981l127 -170v-555 l-59 -80l59 -81v-553l-127 -172h-981zM569 381h602v526h-602v-526zM569 1094h602v526h-602v-526zM621 434v422h499v-422h-499zM621 1147v422h499v-422h-499zM694 514h353v262h-353v-262zM694 1227h353v262h-353v-262z" />
<glyph unicode="C" horiz-adv-x="1525" d="M139 1694l185 245h854l188 -258v-436h-446v244h-347q-1 -157 -1 -317v-160v-162q0 -164 -1 -336h349v244h446v-439l-188 -256h-854l-181 256zM213 1663l4 -1319l141 -201h785l149 205v332h-299v-246h-497q0 147 1 288.5t2 281t2 279.5t1 286h491v-246h299v332l-149 205 h-783zM262 1645l121 161h735l125 -170v-260h-201v244h-589l-7 -1239h596v246h201v-260l-125 -172h-735l-117 167z" />
<glyph unicode="D" horiz-adv-x="1683" d="M141 63v451h109v975h-109v450h1170l190 -258v-1362l-190 -256h-1170zM217 143h1057l153 205v1307l-153 205h-1057v-291h109v-1135h-109v-291zM268 195v186h109v1239h-109v186h981l127 -170v-1269l-127 -172h-981zM569 381h602v1239h-602v-1239zM621 434v1135h499v-1135 h-499zM694 514h353v975h-353v-975z" />
<glyph unicode="E" horiz-adv-x="1697" d="M141 63v451h109v975h-109v450h1360v-694h-149v-487h149v-695h-1360zM217 143h1210v537h-307v-246h-499v422h380v-139h275v569h-275v-139h-380v422h499v-246h307v537h-1210v-291h109v-1135h-109v-291zM268 195v186h109v1239h-109v186h1108v-430h-205v244h-602v-526h332 h150v139h176v-463h-176v137h-209h-273v-526h602v246h205v-432h-1108zM694 514h353v123h-121v139h-232v-262zM694 1227h232v139h121v123h-353v-262z" />
<glyph unicode="F" horiz-adv-x="1675" d="M141 63v451h109v975h-109v450h1360v-694h-149v-608h-426v139h-232v-262h111v-451h-664zM217 143h512v291h-108v422h380v-139h275v569h-275v-139h-380v422h499v-246h307v537h-1210v-291h109v-1135h-109v-291zM268 195v186h109v1239h-109v186h1108v-430h-205v244h-602v-526 h332h150v139h176v-463h-176v137h-209h-273v-526h111v-186h-412zM694 1227h232v139h121v123h-353v-262z" />
<glyph unicode="G" horiz-adv-x="1548" d="M137 1694l187 245h854l186 -258v-436h-446v244h-345q-1 -157 -1 -317v-159.5v-162.5q0 -164 -1 -336h347v262h-250v451h696v-908l-186 -256h-854l-183 256zM211 1665l4 -1321l143 -201h785l147 205v799h-549v-291h250v-422h-495q0 147 1 288.5t2 281t2 279.5t1 286h489 v-246h299v332l-147 205h-783zM260 1645l123 161h735l123 -170v-260h-201v244h-587l-7 -1239h594v526h-249v187h450v-727l-123 -172h-735l-119 167z" />
<glyph unicode="H" horiz-adv-x="1853" d="M145 63v451h125v975h-125v450h707v-450h-127v-254h369v254h-127v450h708v-450h-127v-975h127v-451h-708v451h127v254h-369v-254h127v-451h-707zM221 143h553v291h-127v412h522v-412h-125v-291h553v291h-124v1135h124v291h-553v-291h125v-412h-522v412h127v291h-553v-291 h127v-1135h-127v-291zM272 195v186h127v1239h-127v186h451v-186h-127v-516h625v516h-125v186h450v-186h-125v-1239h125v-186h-450v186h125v518h-625v-518h127v-186h-451z" />
<glyph unicode="I" horiz-adv-x="1036" d="M104 63v451h125v975h-125v450h707v-450h-127v-975h127v-451h-707zM180 143h553v291h-127v412v311v412h127v291h-553v-291h127v-1135h-127v-291zM231 195v186h127v1239h-127v186h451v-186h-127v-516v-205v-518h127v-186h-451z" />
<glyph unicode="J" horiz-adv-x="1519" d="M78 319v439h430v-244h227v975h-117v450h678v-450h-114v-1170l-189 -256h-733zM150 346l147 -203h661l150 205v1221h115v291h-531v-291h117v-1135h-375v246h-284v-334zM199 365v262h186v-246h471v1239h-115v186h433v-186h-115v-1253l-125 -172h-612z" />
<glyph unicode="K" horiz-adv-x="1933" d="M145 63v451h125v975h-125v450h707v-450h-127v-254h139q18 37 30.5 60.5t26 49t31 58.5t43.5 86h-28v450h708v-450h-168q-33 -63 -62.5 -122.5t-59 -118t-61.5 -120t-67 -129.5q59 -117 120 -236.5t126 -248.5h172v-451h-708v451h24q-31 59 -60.5 118.5t-68.5 135.5h-137 v-254h127v-451h-707zM221 143h553v291h-127v412h262q55 -111 104.5 -208t102.5 -204h-72v-291h553v291h-141q-74 147 -142.5 282.5t-142.5 282.5q78 150 146.5 285t144.5 285h135v291h-553v-291h78q-33 -61 -58.5 -111.5t-50 -97.5t-49 -95t-55.5 -108h-262v412h127v291 h-553v-291h127v-1135h-127v-291zM272 195v186h127v1239h-127v186h451v-186h-127v-516h346l266 516h-112v186h450v-186h-114l-318 -619l309 -620h123v-186h-450v186h104l-258 518h-346v-518h127v-186h-451z" />
<glyph unicode="L" horiz-adv-x="1597" d="M139 63v451h125v975h-125v450h682v-450h-125v-975h260v244h435v-695h-1252zM213 143h1104v537h-287v-246h-407v1135h125v291h-535v-291h125v-1135h-125v-291zM262 195v186h125v1239h-125v186h434v-186h-123v-1239h506v246h189v-432h-1006z" />
<glyph unicode="M" horiz-adv-x="2281" d="M150 63v451h129v975h-129v450h595l334 -647q86 164 172 332t162 315h594v-450h-131v-975h131v-451h-727v451h129v463q-59 -113 -115.5 -224.5t-109.5 -211.5h-211l-225 434v-461h129v-451h-727zM229 143h570v291h-131v860l352 -673h119q84 160 174 332.5t176 338.5v-858 h-131v-291h569v291h-129v1135h129v291h-467q-92 -180 -189 -367.5t-192 -372.5l-381 740h-469v-291h129v-1135h-129v-291zM281 195v186h131v1239h-131v186h383l415 -802l414 802h383v-186h-131v-1239h131v-186h-465v186h131v1126l-436 -833h-53l-439 833v-1126h131v-186 h-464z" />
<glyph unicode="N" horiz-adv-x="1900" d="M145 63v451h125v975h-125v450h572l377 -759v309h-127v450h708v-450h-127v-1426h-411l-412 832v-381h127v-451h-707zM221 143h553v291h-127v785l537 -1076h289v1426h124v291h-553v-291h125v-717l-499 1008h-449v-291h127v-1135h-127v-291zM272 195v186h127v1239h-127v186 h365l584 -1175v989h-125v186h450v-186h-125v-1425h-204l-621 1245v-1059h127v-186h-451z" />
<glyph unicode="O" horiz-adv-x="1566" d="M139 319v1375l185 245h854l188 -258v-1362l-188 -256h-854zM213 346l145 -203h785l149 205v1307l-149 205h-783l-147 -197v-1317zM262 365v1280l121 161h735l125 -170v-1269l-125 -172h-735zM446 381h596v1239h-589zM496 434q0 147 1 288.5t2 281t2 279.5t1 286h491 v-1135h-497zM571 514h349v975h-347q-1 -157 -1 -317v-160v-162q0 -164 -1 -336z" />
<glyph unicode="P" horiz-adv-x="1746" d="M143 63v451h123v975h-123v450h1184l195 -258v-741l-195 -256h-614v-170h123v-451h-693zM217 143h543v291h-123v330h655l154 205v686l-154 205h-1075v-291h125v-1135h-125v-291zM268 195v186h123v1239h-123v186h1000l127 -170v-651l-127 -168h-682v-436h125v-186h-125 h-195h-123zM586 1001h604v619h-604v-619zM637 1055v514h502v-514h-502zM713 1133h350v356h-350v-356z" />
<glyph unicode="Q" horiz-adv-x="1572" d="M139 324v1368l185 254h854l188 -265v-1353l-188 -262h-76q23 -43 42 -79t32 -59l-377 -241l-201 374h-274zM213 352l145 -209h283l184 -346l250 160q-23 39 -48.5 90t-51.5 98h168l149 211v1297l-149 211h-783l-147 -201v-1311zM262 369v1276l121 165h735l125 -176v-1259 l-125 -174h-229l119 -224l-164 -106l-176 326h-285zM446 387h596v1229h-589zM496 442q0 152 1 289t2 272.5t2 271.5t1 286h491v-1119h-497zM571 522h349v959h-347q0 -121 -1 -236t-1 -231.5v-238.5v-253z" />
<glyph unicode="R" horiz-adv-x="1796" d="M143 63v451h123v975h-123v450h1184l195 -258v-741l-179 -235q6 -43 12.5 -84t16.5 -107h150v-451h-1379zM217 143h543v291h-123v330h313q14 -92 24.5 -169t22.5 -161h-96v-291h545v291h-137q-14 92 -25.5 169t-23.5 161h32l154 205v686l-154 205h-1075v-291h125v-1135 h-125v-291zM268 195v186h123v1239h-123v186h1000l127 -170v-651l-127 -168h-68l64 -436h131v-186h-103h-205h-137v186h109l-66 436h-407v-436h125v-186h-443zM586 1001h604v619h-604v-619zM637 1055v514h502v-514h-502zM713 514h198q-6 35 -11 73t-13 97h-174v-170z M713 1133h350v356h-350v-356z" />
<glyph unicode="S" horiz-adv-x="1646" d="M139 319v439h432v-244h349v262h-592l-189 256v649l189 258h850l188 -258v-436h-432v244h-359v-262h603l188 -258v-650l-188 -256h-850zM213 348l149 -205h781l149 205v594l-149 205h-641v422h506v-246h284v332l-149 205h-781l-149 -205v-594l149 -205h631v-422h-495v246 h-285v-332zM262 367v260h187v-246h299h294v526h-655l-125 172v557l125 170h731l125 -170v-260h-186v244h-604v-526h665l125 -170v-557l-125 -172h-731z" />
<glyph unicode="T" horiz-adv-x="1576" d="M47 1245v694h1358v-694h-426v244h-29v-975h123v-451h-692v451h125v975h-31v-244h-428zM123 1323h276v246h181v-1135h-125v-291h542v291h-123v1135h181v-246h276v537h-1208v-537zM172 1376v430h1108v-430h-174v244h-281v-1239h123v-186h-442v186h125v1239h-281v-244h-178z " />
<glyph unicode="U" horiz-adv-x="1925" d="M156 1489v450h704v-450h-127v-246v-233.5t-1 -237.5t-1 -258h361v975h-121v450h708v-450h-123v-1170l-194 -256h-891l-190 256v1170h-125zM231 1569h127v-1223l152 -203h815l156 205v1221h121v291h-553v-291h120v-1135h-516v288.5t1 281t2 279.5t1 286h127v291h-553v-291 zM283 1620v186h450v-186h-127l-4 -1239h619v436v803h-121v186h450v-186h-120v-1253l-130 -172h-765l-125 170v1255h-127z" />
<glyph unicode="V" horiz-adv-x="1806" d="M39 1489v450h715v-450h-70q23 -78 39 -131t32.5 -108.5t39 -127t57.5 -186.5q39 127 80 258t92 295h-72v450h713v-450h-160q-53 -172 -108.5 -353.5t-110.5 -364.5t-111.5 -362.5t-107.5 -345.5h-428l-438 1426h-162zM117 1569h139l442 -1426h312q51 166 106 347.5 t112.5 364.5t113 364.5t106.5 349.5h139v291h-557v-291h100q-41 -131 -73.5 -239.5t-65.5 -212t-66.5 -210t-72.5 -233.5q-41 131 -74 240.5t-64.5 213t-63.5 210t-70 231.5h96v291h-559v-291zM168 1620v186h455v-186h-117l346 -1126l348 1126h-119v186h455v-186h-127 q-111 -358 -219 -712.5t-219 -712.5h-236l-438 1425h-129z" />
<glyph unicode="W" horiz-adv-x="2930" d="M41 1489v450h762v-450h-74q25 -78 42 -131t35.5 -108.5t42 -127t60.5 -186.5q41 129 85 258t98 295h-74v450h760v-450h-74q25 -78 42 -131t35.5 -108.5l42 -126t60.5 -185.5q41 125 84 258t96 293h-73v450h762v-450h-170q-55 -170 -116 -352.5t-121 -365.5t-118.5 -362.5 t-113.5 -345.5h-455l-262 789l-258 -789h-457l-469 1426h-172zM125 1569h149l471 -1426h332l320 971l323 -971h330q55 168 115.5 348.5t121 362.5t120 363.5t114.5 351.5h150v291h-598v-291h106q-39 -121 -76 -233.5t-72.5 -222t-71.5 -219.5t-75 -224q-43 131 -77.5 241.5 t-68.5 214t-69 210t-76 233.5h103v291h-596v-291h106q-43 -131 -78.5 -239.5t-70.5 -212t-70 -210t-78 -233.5q-43 131 -78.5 240.5t-69.5 213t-68 210t-75 231.5h103v291h-596v-291zM180 1620v186h486v-186h-125l368 -1126l373 1126h-127v186h485v-186h-124l368 -1126 l371 1126h-127v186h487v-186h-135q-119 -358 -235.5 -712.5t-233.5 -712.5h-252l-362 1099l-361 -1099h-252l-469 1425h-135z" />
<glyph unicode="X" horiz-adv-x="1906" d="M145 63v451h181q78 121 152.5 238.5t158.5 248.5q-41 63 -79 123t-75 118t-75.5 118.5t-81.5 128.5h-181v450h707v-421q10 -16 23.5 -38t33.5 -53q14 23 27.5 45.5t30.5 47.5v419h708v-450h-184q-41 -66 -78 -124t-73.5 -115.5t-74.5 -118t-83 -130.5q45 -70 80.5 -128 t71.5 -113t73 -114.5t84 -131.5h184v-451h-708v420q-10 16 -24.5 38t-33.5 54q-16 -23 -29.5 -46t-27.5 -46v-420h-707zM221 143h553v291h-47q29 45 51.5 82t44 68.5t42 64.5t44.5 70q55 -86 95 -148.5t88 -136.5h-48v-291h553v291h-147q-92 145 -180 284.5t-180 282.5 q49 76 93 146t87 138.5t87 138t93 145.5h147v291h-553v-291h48q-29 -47 -51.5 -83t-44 -69t-42 -64.5t-45.5 -70.5q-55 86 -96 149.5t-86 137.5h47v291h-553v-291h148q47 -76 92 -145.5t89 -139.5t89 -139.5t92 -143.5q-94 -147 -181 -283t-181 -284h-148v-291zM272 195v186 h123l396 620l-396 619h-123v186h451v-186h-90l276 -432l277 432h-90v186h450v-186h-123l-395 -619l395 -620h123v-186h-450v186h90l-277 434l-276 -434h90v-186h-451z" />
<glyph unicode="Y" horiz-adv-x="1789" d="M68 1489v450h706v-450h-12q12 -23 28.5 -52.5t43.5 -76.5q12 23 28.5 54.5t40.5 74.5h-14v450h708v-450h-180q-92 -166 -178 -321.5t-180 -325.5v-328h127v-451h-709v451h127v328q-49 88 -93 166.5t-87 155.5t-87 156t-93 169h-176zM143 1569h146q102 -182 196.5 -353.5 t196.5 -351.5v-430h-127v-291h555v291h-129v430q100 180 196.5 352.5t196.5 352.5h146v291h-553v-291h67q-31 -55 -55.5 -101.5t-49 -88.5t-48 -84t-50.5 -91q-31 55 -55 100.5t-49 88.5t-48.5 85t-49.5 91h67v291h-553v-291zM195 1620v186h450v-186h-104l290 -526l289 526 h-102v186h450v-186h-122l-416 -741v-498h129v-186h-453v186h127v498l-416 741h-122z" />
<glyph unicode="Z" horiz-adv-x="1617" d="M139 63v359q96 156 199.5 327t200.5 324q43 72 71.5 118t53 87t53 88t76.5 123h-218v-244h-436v694h1233v-358q-96 -158 -200.5 -328t-198.5 -323q-47 -78 -75 -124t-52.5 -85t-52 -85t-74.5 -122h217v244h436v-695h-1233zM213 143h1085v537h-288v-246h-430 q45 74 86 140.5t80.5 132t79.5 131t83 135.5q96 156 194.5 316.5t194.5 318.5v252h-1085v-537h289v246h430q-47 -78 -87 -143.5t-79 -128t-79 -127t-87 -140.5q-96 -156 -193.5 -317.5t-193.5 -317.5v-252zM262 195v186q190 311 378.5 619.5t381.5 619.5h-569v-244h-191v430 h987v-186q-190 -311 -378.5 -619.5t-381.5 -619.5h570v246h190v-432h-987z" />
<glyph unicode="a" horiz-adv-x="1847" d="M94 63v451h162q41 133 77 249t71.5 229.5t72.5 233.5t80 263h-61v450h825v-450h-61q39 -125 75.5 -244t72.5 -236.5t73 -240.5t78 -254h161v-451h-712v435h-199v-435h-715zM172 143h559v291h-100l47 144h461q12 -41 23.5 -75t21.5 -69h-99v-291h560v291h-142 q-90 293 -175 568.5t-173 566.5h88v291h-672v-291h91q-47 -150 -90.5 -290t-86.5 -278.5t-86 -277.5t-88 -289h-139v-291zM225 195v186h127l381 1239h-108v186h565v-186h-109l383 -1239h127v-186h-454v186h118l-75 250h-543l-76 -250h119v-186h-455zM694 817h426l-213 690 q-53 -174 -106 -345t-107 -345zM766 868q12 43 22.5 76t19.5 63.5t20.5 63.5t23.5 74q16 47 28.5 92t26.5 92l142 -461h-283zM870 948h72l-35 119q-6 -16 -8 -24.5t-5 -17.5t-8 -26.5t-16 -50.5z" />
<glyph unicode="b" horiz-adv-x="1689" d="M141 63v451h109v975h-109v450h1170l190 -258v-647l-24 -33q8 -10 14 -19t10 -13v-650l-190 -256h-1170zM217 143h1057l153 205v590q-10 12 -23 29.5t-24 33.5l47 64v590l-153 205h-1057v-291h109v-1135h-109v-291zM268 195v186h109v1239h-109v186h981l127 -170v-555 l-59 -80l59 -81v-553l-127 -172h-981zM569 381h602v526h-602v-526zM569 1094h602v526h-602v-526zM621 434v422h499v-422h-499zM621 1147v422h499v-422h-499zM694 514h353v262h-353v-262zM694 1227h353v262h-353v-262z" />
<glyph unicode="c" horiz-adv-x="1525" d="M139 1694l185 245h854l188 -258v-436h-446v244h-347q-1 -157 -1 -317v-160v-162q0 -164 -1 -336h349v244h446v-439l-188 -256h-854l-181 256zM213 1663l4 -1319l141 -201h785l149 205v332h-299v-246h-497q0 147 1 288.5t2 281t2 279.5t1 286h491v-246h299v332l-149 205 h-783zM262 1645l121 161h735l125 -170v-260h-201v244h-589l-7 -1239h596v246h201v-260l-125 -172h-735l-117 167z" />
<glyph unicode="d" horiz-adv-x="1683" d="M141 63v451h109v975h-109v450h1170l190 -258v-1362l-190 -256h-1170zM217 143h1057l153 205v1307l-153 205h-1057v-291h109v-1135h-109v-291zM268 195v186h109v1239h-109v186h981l127 -170v-1269l-127 -172h-981zM569 381h602v1239h-602v-1239zM621 434v1135h499v-1135 h-499zM694 514h353v975h-353v-975z" />
<glyph unicode="e" horiz-adv-x="1697" d="M141 63v451h109v975h-109v450h1360v-694h-149v-487h149v-695h-1360zM217 143h1210v537h-307v-246h-499v422h380v-139h275v569h-275v-139h-380v422h499v-246h307v537h-1210v-291h109v-1135h-109v-291zM268 195v186h109v1239h-109v186h1108v-430h-205v244h-602v-526h332 h150v139h176v-463h-176v137h-209h-273v-526h602v246h205v-432h-1108zM694 514h353v123h-121v139h-232v-262zM694 1227h232v139h121v123h-353v-262z" />
<glyph unicode="f" horiz-adv-x="1675" d="M141 63v451h109v975h-109v450h1360v-694h-149v-608h-426v139h-232v-262h111v-451h-664zM217 143h512v291h-108v422h380v-139h275v569h-275v-139h-380v422h499v-246h307v537h-1210v-291h109v-1135h-109v-291zM268 195v186h109v1239h-109v186h1108v-430h-205v244h-602v-526 h332h150v139h176v-463h-176v137h-209h-273v-526h111v-186h-412zM694 1227h232v139h121v123h-353v-262z" />
<glyph unicode="g" horiz-adv-x="1548" d="M137 1694l187 245h854l186 -258v-436h-446v244h-345q-1 -157 -1 -317v-159.5v-162.5q0 -164 -1 -336h347v262h-250v451h696v-908l-186 -256h-854l-183 256zM211 1665l4 -1321l143 -201h785l147 205v799h-549v-291h250v-422h-495q0 147 1 288.5t2 281t2 279.5t1 286h489 v-246h299v332l-147 205h-783zM260 1645l123 161h735l123 -170v-260h-201v244h-587l-7 -1239h594v526h-249v187h450v-727l-123 -172h-735l-119 167z" />
<glyph unicode="h" horiz-adv-x="1853" d="M145 63v451h125v975h-125v450h707v-450h-127v-254h369v254h-127v450h708v-450h-127v-975h127v-451h-708v451h127v254h-369v-254h127v-451h-707zM221 143h553v291h-127v412h522v-412h-125v-291h553v291h-124v1135h124v291h-553v-291h125v-412h-522v412h127v291h-553v-291 h127v-1135h-127v-291zM272 195v186h127v1239h-127v186h451v-186h-127v-516h625v516h-125v186h450v-186h-125v-1239h125v-186h-450v186h125v518h-625v-518h127v-186h-451z" />
<glyph unicode="i" horiz-adv-x="1036" d="M104 63v451h125v975h-125v450h707v-450h-127v-975h127v-451h-707zM180 143h553v291h-127v412v311v412h127v291h-553v-291h127v-1135h-127v-291zM231 195v186h127v1239h-127v186h451v-186h-127v-516v-205v-518h127v-186h-451z" />
<glyph unicode="j" horiz-adv-x="1519" d="M78 319v439h430v-244h227v975h-117v450h678v-450h-114v-1170l-189 -256h-733zM150 346l147 -203h661l150 205v1221h115v291h-531v-291h117v-1135h-375v246h-284v-334zM199 365v262h186v-246h471v1239h-115v186h433v-186h-115v-1253l-125 -172h-612z" />
<glyph unicode="k" horiz-adv-x="1933" d="M145 63v451h125v975h-125v450h707v-450h-127v-254h139q18 37 30.5 60.5t26 49t31 58.5t43.5 86h-28v450h708v-450h-168q-33 -63 -62.5 -122.5t-59 -118t-61.5 -120t-67 -129.5q59 -117 120 -236.5t126 -248.5h172v-451h-708v451h24q-31 59 -60.5 118.5t-68.5 135.5h-137 v-254h127v-451h-707zM221 143h553v291h-127v412h262q55 -111 104.5 -208t102.5 -204h-72v-291h553v291h-141q-74 147 -142.5 282.5t-142.5 282.5q78 150 146.5 285t144.5 285h135v291h-553v-291h78q-33 -61 -58.5 -111.5t-50 -97.5t-49 -95t-55.5 -108h-262v412h127v291 h-553v-291h127v-1135h-127v-291zM272 195v186h127v1239h-127v186h451v-186h-127v-516h346l266 516h-112v186h450v-186h-114l-318 -619l309 -620h123v-186h-450v186h104l-258 518h-346v-518h127v-186h-451z" />
<glyph unicode="l" horiz-adv-x="1597" d="M139 63v451h125v975h-125v450h682v-450h-125v-975h260v244h435v-695h-1252zM213 143h1104v537h-287v-246h-407v1135h125v291h-535v-291h125v-1135h-125v-291zM262 195v186h125v1239h-125v186h434v-186h-123v-1239h506v246h189v-432h-1006z" />
<glyph unicode="m" horiz-adv-x="2281" d="M150 63v451h129v975h-129v450h595l334 -647q86 164 172 332t162 315h594v-450h-131v-975h131v-451h-727v451h129v463q-59 -113 -115.5 -224.5t-109.5 -211.5h-211l-225 434v-461h129v-451h-727zM229 143h570v291h-131v860l352 -673h119q84 160 174 332.5t176 338.5v-858 h-131v-291h569v291h-129v1135h129v291h-467q-92 -180 -189 -367.5t-192 -372.5l-381 740h-469v-291h129v-1135h-129v-291zM281 195v186h131v1239h-131v186h383l415 -802l414 802h383v-186h-131v-1239h131v-186h-465v186h131v1126l-436 -833h-53l-439 833v-1126h131v-186 h-464z" />
<glyph unicode="n" horiz-adv-x="1900" d="M145 63v451h125v975h-125v450h572l377 -759v309h-127v450h708v-450h-127v-1426h-411l-412 832v-381h127v-451h-707zM221 143h553v291h-127v785l537 -1076h289v1426h124v291h-553v-291h125v-717l-499 1008h-449v-291h127v-1135h-127v-291zM272 195v186h127v1239h-127v186 h365l584 -1175v989h-125v186h450v-186h-125v-1425h-204l-621 1245v-1059h127v-186h-451z" />
<glyph unicode="o" horiz-adv-x="1566" d="M139 319v1375l185 245h854l188 -258v-1362l-188 -256h-854zM213 346l145 -203h785l149 205v1307l-149 205h-783l-147 -197v-1317zM262 365v1280l121 161h735l125 -170v-1269l-125 -172h-735zM446 381h596v1239h-589zM496 434q0 147 1 288.5t2 281t2 279.5t1 286h491 v-1135h-497zM571 514h349v975h-347q-1 -157 -1 -317v-160v-162q0 -164 -1 -336z" />
<glyph unicode="p" horiz-adv-x="1746" d="M143 63v451h123v975h-123v450h1184l195 -258v-741l-195 -256h-614v-170h123v-451h-693zM217 143h543v291h-123v330h655l154 205v686l-154 205h-1075v-291h125v-1135h-125v-291zM268 195v186h123v1239h-123v186h1000l127 -170v-651l-127 -168h-682v-436h125v-186h-125 h-195h-123zM586 1001h604v619h-604v-619zM637 1055v514h502v-514h-502zM713 1133h350v356h-350v-356z" />
<glyph unicode="q" horiz-adv-x="1572" d="M139 324v1368l185 254h854l188 -265v-1353l-188 -262h-76q23 -43 42 -79t32 -59l-377 -241l-201 374h-274zM213 352l145 -209h283l184 -346l250 160q-23 39 -48.5 90t-51.5 98h168l149 211v1297l-149 211h-783l-147 -201v-1311zM262 369v1276l121 165h735l125 -176v-1259 l-125 -174h-229l119 -224l-164 -106l-176 326h-285zM446 387h596v1229h-589zM496 442q0 152 1 289t2 272.5t2 271.5t1 286h491v-1119h-497zM571 522h349v959h-347q0 -121 -1 -236t-1 -231.5v-238.5v-253z" />
<glyph unicode="r" horiz-adv-x="1796" d="M143 63v451h123v975h-123v450h1184l195 -258v-741l-179 -235q6 -43 12.5 -84t16.5 -107h150v-451h-1379zM217 143h543v291h-123v330h313q14 -92 24.5 -169t22.5 -161h-96v-291h545v291h-137q-14 92 -25.5 169t-23.5 161h32l154 205v686l-154 205h-1075v-291h125v-1135 h-125v-291zM268 195v186h123v1239h-123v186h1000l127 -170v-651l-127 -168h-68l64 -436h131v-186h-103h-205h-137v186h109l-66 436h-407v-436h125v-186h-443zM586 1001h604v619h-604v-619zM637 1055v514h502v-514h-502zM713 514h198q-6 35 -11 73t-13 97h-174v-170z M713 1133h350v356h-350v-356z" />
<glyph unicode="s" horiz-adv-x="1646" d="M139 319v439h432v-244h349v262h-592l-189 256v649l189 258h850l188 -258v-436h-432v244h-359v-262h603l188 -258v-650l-188 -256h-850zM213 348l149 -205h781l149 205v594l-149 205h-641v422h506v-246h284v332l-149 205h-781l-149 -205v-594l149 -205h631v-422h-495v246 h-285v-332zM262 367v260h187v-246h299h294v526h-655l-125 172v557l125 170h731l125 -170v-260h-186v244h-604v-526h665l125 -170v-557l-125 -172h-731z" />
<glyph unicode="t" horiz-adv-x="1576" d="M47 1245v694h1358v-694h-426v244h-29v-975h123v-451h-692v451h125v975h-31v-244h-428zM123 1323h276v246h181v-1135h-125v-291h542v291h-123v1135h181v-246h276v537h-1208v-537zM172 1376v430h1108v-430h-174v244h-281v-1239h123v-186h-442v186h125v1239h-281v-244h-178z " />
<glyph unicode="u" horiz-adv-x="1925" d="M156 1489v450h704v-450h-127v-246v-233.5t-1 -237.5t-1 -258h361v975h-121v450h708v-450h-123v-1170l-194 -256h-891l-190 256v1170h-125zM231 1569h127v-1223l152 -203h815l156 205v1221h121v291h-553v-291h120v-1135h-516v288.5t1 281t2 279.5t1 286h127v291h-553v-291 zM283 1620v186h450v-186h-127l-4 -1239h619v436v803h-121v186h450v-186h-120v-1253l-130 -172h-765l-125 170v1255h-127z" />
<glyph unicode="v" horiz-adv-x="1806" d="M39 1489v450h715v-450h-70q23 -78 39 -131t32.5 -108.5t39 -127t57.5 -186.5q39 127 80 258t92 295h-72v450h713v-450h-160q-53 -172 -108.5 -353.5t-110.5 -364.5t-111.5 -362.5t-107.5 -345.5h-428l-438 1426h-162zM117 1569h139l442 -1426h312q51 166 106 347.5 t112.5 364.5t113 364.5t106.5 349.5h139v291h-557v-291h100q-41 -131 -73.5 -239.5t-65.5 -212t-66.5 -210t-72.5 -233.5q-41 131 -74 240.5t-64.5 213t-63.5 210t-70 231.5h96v291h-559v-291zM168 1620v186h455v-186h-117l346 -1126l348 1126h-119v186h455v-186h-127 q-111 -358 -219 -712.5t-219 -712.5h-236l-438 1425h-129z" />
<glyph unicode="w" horiz-adv-x="2930" d="M41 1489v450h762v-450h-74q25 -78 42 -131t35.5 -108.5t42 -127t60.5 -186.5q41 129 85 258t98 295h-74v450h760v-450h-74q25 -78 42 -131t35.5 -108.5l42 -126t60.5 -185.5q41 125 84 258t96 293h-73v450h762v-450h-170q-55 -170 -116 -352.5t-121 -365.5t-118.5 -362.5 t-113.5 -345.5h-455l-262 789l-258 -789h-457l-469 1426h-172zM125 1569h149l471 -1426h332l320 971l323 -971h330q55 168 115.5 348.5t121 362.5t120 363.5t114.5 351.5h150v291h-598v-291h106q-39 -121 -76 -233.5t-72.5 -222t-71.5 -219.5t-75 -224q-43 131 -77.5 241.5 t-68.5 214t-69 210t-76 233.5h103v291h-596v-291h106q-43 -131 -78.5 -239.5t-70.5 -212t-70 -210t-78 -233.5q-43 131 -78.5 240.5t-69.5 213t-68 210t-75 231.5h103v291h-596v-291zM180 1620v186h486v-186h-125l368 -1126l373 1126h-127v186h485v-186h-124l368 -1126 l371 1126h-127v186h487v-186h-135q-119 -358 -235.5 -712.5t-233.5 -712.5h-252l-362 1099l-361 -1099h-252l-469 1425h-135z" />
<glyph unicode="x" horiz-adv-x="1906" d="M145 63v451h181q78 121 152.5 238.5t158.5 248.5q-41 63 -79 123t-75 118t-75.5 118.5t-81.5 128.5h-181v450h707v-421q10 -16 23.5 -38t33.5 -53q14 23 27.5 45.5t30.5 47.5v419h708v-450h-184q-41 -66 -78 -124t-73.5 -115.5t-74.5 -118t-83 -130.5q45 -70 80.5 -128 t71.5 -113t73 -114.5t84 -131.5h184v-451h-708v420q-10 16 -24.5 38t-33.5 54q-16 -23 -29.5 -46t-27.5 -46v-420h-707zM221 143h553v291h-47q29 45 51.5 82t44 68.5t42 64.5t44.5 70q55 -86 95 -148.5t88 -136.5h-48v-291h553v291h-147q-92 145 -180 284.5t-180 282.5 q49 76 93 146t87 138.5t87 138t93 145.5h147v291h-553v-291h48q-29 -47 -51.5 -83t-44 -69t-42 -64.5t-45.5 -70.5q-55 86 -96 149.5t-86 137.5h47v291h-553v-291h148q47 -76 92 -145.5t89 -139.5t89 -139.5t92 -143.5q-94 -147 -181 -283t-181 -284h-148v-291zM272 195v186 h123l396 620l-396 619h-123v186h451v-186h-90l276 -432l277 432h-90v186h450v-186h-123l-395 -619l395 -620h123v-186h-450v186h90l-277 434l-276 -434h90v-186h-451z" />
<glyph unicode="y" horiz-adv-x="1789" d="M68 1489v450h706v-450h-12q12 -23 28.5 -52.5t43.5 -76.5q12 23 28.5 54.5t40.5 74.5h-14v450h708v-450h-180q-92 -166 -178 -321.5t-180 -325.5v-328h127v-451h-709v451h127v328q-49 88 -93 166.5t-87 155.5t-87 156t-93 169h-176zM143 1569h146q102 -182 196.5 -353.5 t196.5 -351.5v-430h-127v-291h555v291h-129v430q100 180 196.5 352.5t196.5 352.5h146v291h-553v-291h67q-31 -55 -55.5 -101.5t-49 -88.5t-48 -84t-50.5 -91q-31 55 -55 100.5t-49 88.5t-48.5 85t-49.5 91h67v291h-553v-291zM195 1620v186h450v-186h-104l290 -526l289 526 h-102v186h450v-186h-122l-416 -741v-498h129v-186h-453v186h127v498l-416 741h-122z" />
<glyph unicode="z" horiz-adv-x="1617" d="M139 63v359q96 156 199.5 327t200.5 324q43 72 71.5 118t53 87t53 88t76.5 123h-218v-244h-436v694h1233v-358q-96 -158 -200.5 -328t-198.5 -323q-47 -78 -75 -124t-52.5 -85t-52 -85t-74.5 -122h217v244h436v-695h-1233zM213 143h1085v537h-288v-246h-430 q45 74 86 140.5t80.5 132t79.5 131t83 135.5q96 156 194.5 316.5t194.5 318.5v252h-1085v-537h289v246h430q-47 -78 -87 -143.5t-79 -128t-79 -127t-87 -140.5q-96 -156 -193.5 -317.5t-193.5 -317.5v-252zM262 195v186q190 311 378.5 619.5t381.5 619.5h-569v-244h-191v430 h987v-186q-190 -311 -378.5 -619.5t-381.5 -619.5h570v246h190v-432h-987z" />
<glyph unicode="&#x2000;" horiz-adv-x="1084" />
<glyph unicode="&#x2001;" horiz-adv-x="2169" />
<glyph unicode="&#x2002;" horiz-adv-x="1084" />
<glyph unicode="&#x2003;" horiz-adv-x="2169" />
<glyph unicode="&#x2004;" horiz-adv-x="723" />
<glyph unicode="&#x2005;" horiz-adv-x="542" />
<glyph unicode="&#x2006;" horiz-adv-x="361" />
<glyph unicode="&#x2007;" horiz-adv-x="361" />
<glyph unicode="&#x2008;" horiz-adv-x="271" />
<glyph unicode="&#x2009;" horiz-adv-x="433" />
<glyph unicode="&#x200a;" horiz-adv-x="120" />
<glyph unicode="&#x202f;" horiz-adv-x="433" />
<glyph unicode="&#x205f;" horiz-adv-x="542" />
<glyph unicode="&#x25fc;" horiz-adv-x="1935" d="M0 0v1935h1935v-1935h-1935z" />
</font>
</defs>
</svg>
